<svg height="512pt" viewBox="0 0 512 512" width="512pt" xmlns="http://www.w3.org/2000/svg"><path d="m512 256c0 94.269531-50.960938 176.640625-126.832031 221.058594-.667969.394531-1.335938.78125-2.003907 1.167968-.773437.449219-1.558593.890626-2.332031 1.316407-3.4375 1.933593-6.925781 3.785156-10.457031 5.539062-2.445312 1.234375-4.914062 2.414063-7.410156 3.5625-15.839844 7.304688-32.570313 13.03125-49.964844 16.992188-2.664062.605469-5.351562 1.167969-8.046875 1.691406h-.011719c-15.839844 3.0625-32.203125 4.671875-48.941406 4.671875-141.386719 0-256-114.617188-256-256 0-141.386719 114.613281-256 256-256 141.382812 0 256 114.613281 256 256zm0 0" fill="#ffd833"/><path d="m85.453125 150.652344c-9.210937 0-15.722656-1.910156-16.316406-2.089844l3.039062-10 2.972657-10.011719c.878906.253907 21.644531 6.027344 37.296874-9.628906l14.777344 14.777344c-13.832031 13.835937-30.003906 16.953125-41.769531 16.953125zm0 0" fill="#c680ff"/><path d="m489.902344 261.109375c4.332031 8.125 5.710937 14.769531 5.832031 15.378906l-10.257813 2.019531-10.234374 2.089844c-.1875-.894531-4.859376-21.9375-26.035157-28.386718l6.089844-19.992188c18.714844 5.703125 29.070313 18.503906 34.605469 28.890625zm0 0" fill="#fc70bd"/><path d="m352.695312 257.273438c-8.988281-1.996094-14.933593-5.273438-15.472656-5.578126l5.136719-9.101562 5.074219-9.132812c.800781.4375 19.820312 10.578124 38.496094-1.308594l11.21875 17.628906c-16.503907 10.507812-32.964844 10.046875-44.453126 7.492188zm0 0" fill="#ff9124"/><path d="m408.511719 35.238281c8.605469-3.277343 15.371093-3.8125 15.992187-3.855469l.714844 10.425782.789062 10.417968c-.910156.074219-22.371093 2.070313-31.429687 22.273438l-19.066406-8.550781c8-17.855469 22.003906-26.523438 33-30.710938zm0 0" fill="#ff9124"/><path d="m386.363281 362.183594c-2.757812-8.785156-2.882812-15.574219-2.890625-16.195313l10.453125-.089843 10.445313-.164063c.019531.914063.726562 22.457031 20.347656 32.707031l-9.675781 18.523438c-17.339844-9.058594-25.15625-23.554688-28.679688-34.78125zm0 0" fill="#fc70bd"/><g fill="#c680ff"><path d="m449 162.015625c-2.757812-8.785156-2.886719-15.570313-2.890625-16.191406l10.453125-.09375 10.441406-.160157c.023438.910157.730469 22.453126 20.351563 32.703126l-9.675781 18.523437c-17.339844-9.058594-25.15625-23.550781-28.679688-34.78125zm0 0"/><path d="m339.746094 42.296875-19.246094 8.128906c-7.03125-16.644531-4.847656-31.703125-.980469-42.484375 6.789063 1.734375 13.46875 3.742188 20.019531 5.996094-2.695312 7.035156-4.503906 17.199219.207032 28.359375zm0 0"/><path d="m55.703125 166.023438-9.675781 18.515624c-13.929688-7.28125-21.710938-18.066406-26.058594-27.847656 3.363281-7.980468 7.125-15.765625 11.253906-23.308594l4.136719-.066406c.019531.910156.722656 22.457032 20.34375 32.707032zm0 0"/><path d="m124.242188 220.265625c-2.757813-8.785156-2.886719-15.570313-2.890626-16.191406l10.453126-.09375 10.441406-.160157c.023437.910157.730468 22.453126 20.351562 32.703126l-9.675781 18.523437c-17.339844-9.058594-25.15625-23.550781-28.679687-34.78125zm0 0"/><path d="m435.882812 335.390625c-8.933593-2.21875-14.796874-5.640625-15.328124-5.960937l5.359374-8.96875 5.296876-9.003907c.789062.457031 19.554687 11.066407 38.519531-.355469l10.78125 17.902344c-16.761719 10.09375-33.207031 9.222656-44.628907 6.386719zm0 0"/><path d="m75.464844 363.257812c-8.933594-2.21875-14.796875-5.644531-15.328125-5.960937l5.359375-8.972656 5.296875-9c.792969.457031 19.554687 11.0625 38.519531-.355469l10.78125 17.902344c-16.761719 10.089844-33.207031 9.222656-44.628906 6.386718zm0 0"/></g><path d="m146.960938 188.125c-3.695313-8.433594-4.5625-15.167969-4.632813-15.78125l10.378906-1.230469 10.363281-1.300781c.121094.90625 3.167969 22.242188 23.792969 30.292969l-7.601562 19.46875c-18.226563-7.117188-27.574219-20.671875-32.300781-31.449219zm0 0" fill="#ed32a2"/><path d="m68.253906 59.53125c-7.351562-5.539062-11.40625-10.984375-11.773437-11.484375l8.445312-6.15625 8.402344-6.210937c.546875.730468 13.660156 17.835937 35.582031 14.753906l2.910156 20.695312c-19.375 2.722656-34.167968-4.515625-43.566406-11.597656zm0 0" fill="#ff9124"/><path d="m161.484375 348.417969c6.5625-6.457031 12.546875-9.664063 13.097656-9.953125l4.84375 9.261718 4.90625 9.222657c-.800781.433593-19.65625 10.882812-19.835937 33.019531l-20.894532-.167969c.15625-19.566406 9.496094-33.128906 17.882813-41.382812zm0 0" fill="#fc70bd"/><path d="m93.519531 402.285156c-11.339843 11.335938-24.242187 15.484375-35.003906 16.601563-5.6875-6.851563-10.992187-14.019531-15.9375-21.460938 4.660156 1.046875 22.394531 3.855469 36.164063-9.914062zm0 0" fill="#ff9124"/><path d="m262.128906 426.390625c-9.207031 0-15.722656-1.90625-16.316406-2.089844l3.039062-10 2.972657-10.011719c.878906.253907 21.644531 6.027344 37.296875-9.628906l14.78125 14.777344c-13.835938 13.835938-30.007813 16.953125-41.773438 16.953125zm0 0" fill="#ff9124"/><path d="m41.964844 275.851562c-9.207032 0-15.71875-1.910156-16.3125-2.089843l3.039062-10 2.972656-10.015625c.878907.253906 21.644532 6.03125 37.296876-9.625l14.777343 14.777344c-13.835937 13.835937-30.003906 16.953124-41.773437 16.953124zm0 0" fill="#fc70bd"/><path d="m229.449219 76.101562c-9.210938 0-15.722657-1.910156-16.316407-2.089843l3.039063-10 2.972656-10.011719c.878907.253906 21.644531 6.027344 37.296875-9.628906l14.777344 14.777344c-13.832031 13.835937-30.003906 16.953124-41.769531 16.953124zm0 0" fill="#ed32a2"/><path d="m53.046875 244.382812c-7.46875-5.386718-11.640625-10.742187-12.015625-11.234374l8.3125-6.335938 8.269531-6.382812c.5625.71875 14.03125 17.542968 35.882813 14l3.347656 20.628906c-19.3125 3.128906-34.25-3.792969-43.796875-10.675782zm0 0" fill="#fff"/><path d="m140.683594 453.035156c-7.46875-5.386718-11.636719-10.746094-12.011719-11.238281l8.3125-6.332031 8.269531-6.386719c.5625.71875 14.03125 17.546875 35.882813 14l3.347656 20.628906c-19.3125 3.132813-34.253906-3.792969-43.800781-10.671875zm0 0" fill="#fff"/><path d="m339.910156 456.710938c-7.21875 5.722656-13.507812 8.273437-14.085937 8.5l-3.828125-9.726563-3.890625-9.695313c.84375-.34375 20.703125-8.71875 23.246093-30.710937l20.761719 2.398437c-2.25 19.4375-12.980469 31.925782-22.203125 39.234376zm0 0" fill="#fff"/><path d="m450.953125 417.734375c-9.191406-.558594-15.578125-2.863281-16.160156-3.078125l3.644531-9.796875 3.574219-9.816406c.859375.308593 21.238281 7.332031 37.8125-7.339844l13.851562 15.648437c-14.648437 12.964844-30.976562 15.097657-42.722656 14.382813zm0 0" fill="#fff"/><path d="m375.242188 168.308594c-7.46875-5.386719-11.636719-10.742188-12.015626-11.238282l8.3125-6.332031 8.269532-6.386719c.5625.722657 14.03125 17.546876 35.882812 14.003907l3.347656 20.625c-19.3125 3.132812-34.253906-3.792969-43.796874-10.671875zm0 0" fill="#fff"/><path d="m382.105469 449.578125v29.246094c-37.21875 21.117187-80.257813 33.175781-126.117188 33.175781-27.03125 0-53.070312-4.191406-77.53125-11.953125-17.03125-5.402344-33.300781-12.550781-48.589843-21.222656v-29.246094c0-47.960937 35.496093-87.648437 81.660156-94.175781 1.882812-.273438 3.78125-.484375 5.695312-.640625 2.570313-.207031 5.160156-.3125 7.785156-.3125h61.949219c4.589844 0 9.09375.324219 13.5.941406 2.636719.375 5.238281.855469 7.796875 1.441406 42.296875 9.675781 73.851563 47.53125 73.851563 92.746094zm0 0" fill="#22b9dd"/><path d="m382.113281 449.578125v29.246094c-22.726562 12.894531-47.613281 22.414062-74 27.855469-14.773437 3.0625-30.019531 4.851562-45.609375 5.238281-2.160156.050781-4.335937.082031-6.507812.082031-27.03125 0-53.070313-4.191406-77.53125-11.953125v-50.46875c0-6.738281.699218-13.324219 2.035156-19.664063 2.71875-12.957031 8.078125-24.933593 15.488281-35.359374 17.238281-24.273438 45.585938-40.105469 77.625-40.105469h13.351563c52.558594 0 95.148437 42.589843 95.148437 95.128906zm0 0" fill="#7ddff9"/><path d="m300.460938 355.390625v5.265625c0 19.976562-13.175782 36.863281-31.316407 42.476562-4.160156 1.285157-8.578125 1.984376-13.164062 1.984376-24.558594 0-44.453125-19.90625-44.453125-44.460938v-5.253906c1.882812-.273438 3.785156-.484375 5.695312-.640625 2.570313-.207031 5.164063-.3125 7.785156-.3125h61.953126c4.585937 0 9.089843.324219 13.5.941406zm0 0" fill="#fc70bd"/><path d="m289.933594 317.804688v41.652343c0 15.25-10.054688 28.140625-23.90625 32.421875-3.167969.984375-6.546875 1.515625-10.042969 1.515625-18.742187 0-33.9375-15.191406-33.9375-33.9375v-41.652343zm0 0" fill="#eaa27f"/><path d="m289.933594 356.820312v2.636719c0 15.25-10.054688 28.140625-23.90625 32.421875-12.496094-3.839844-21.890625-14.707031-23.625-28 2.265625.136719 4.546875.207032 6.835937.207032 6.421875 0 12.71875-.507813 18.847657-1.515626 7.558593-1.214843 14.859374-3.160156 21.847656-5.75zm0 0" fill="#f6ba97"/><path d="m162.878906 249.535156c0 15.714844-11.476562 28.742188-26.507812 31.160156-1.640625.265626-3.332032.40625-5.054688.40625-17.4375 0-31.566406-14.128906-31.566406-31.566406s14.128906-31.566406 31.566406-31.566406c1.722656 0 3.414063.140625 5.054688.40625 15.03125 2.417969 26.507812 15.449219 26.507812 31.160156zm0 0" fill="#f6ba97"/><path d="m162.878906 249.535156c0 15.714844-11.476562 28.742188-26.507812 31.160156-2.730469-9.925781-4.1875-20.375-4.1875-31.160156s1.457031-21.230468 4.1875-31.160156c15.03125 2.417969 26.507812 15.449219 26.507812 31.160156zm0 0" fill="#eaa27f"/><path d="m142.597656 249.535156c0 6.230469-5.050781 11.28125-11.28125 11.28125-6.230468 0-11.28125-5.050781-11.28125-11.28125 0-6.230468 5.050782-11.28125 11.28125-11.28125 6.230469 0 11.28125 5.050782 11.28125 11.28125zm0 0" fill="#eaa27f"/><path d="m349.097656 249.535156c0 15.714844 11.476563 28.742188 26.507813 31.160156 1.644531.265626 3.332031.40625 5.058593.40625 17.4375 0 31.5625-14.128906 31.5625-31.566406s-14.125-31.566406-31.5625-31.566406c-1.726562 0-3.414062.140625-5.058593.40625-15.03125 2.417969-26.507813 15.449219-26.507813 31.160156zm0 0" fill="#f6ba97"/><path d="m349.097656 249.535156c0 15.714844 11.476563 28.742188 26.507813 31.160156 2.730469-9.925781 4.191406-20.375 4.191406-31.160156s-1.457031-21.230468-4.191406-31.160156c-15.03125 2.417969-26.507813 15.449219-26.507813 31.160156zm0 0" fill="#eaa27f"/><path d="m373.429688 188.039062v44.722657c0 58.441406-42.691407 106.925781-98.59375 115.921875-.1875.03125-.386719.0625-.574219.09375-5.945313.949218-12.050781 1.421875-18.277344 1.421875-64.855469 0-117.433594-52.582031-117.433594-117.4375v-44.722657c0-13.65625 2.328125-26.777343 6.632813-38.972656 16.0625-45.703125 59.613281-78.472656 110.800781-78.472656h.011719c6.214844 0 12.328125.480469 18.285156 1.421875 56.171875 8.777344 99.148438 57.386719 99.148438 116.023437zm0 0" fill="#eaa27f"/><path d="m391.945312 249.535156c0 6.230469-5.054687 11.28125-11.285156 11.28125-6.230468 0-11.28125-5.050781-11.28125-11.28125 0-6.230468 5.050782-11.28125 11.28125-11.28125 6.230469 0 11.285156 5.050782 11.285156 11.28125zm0 0" fill="#eaa27f"/><path d="m373.429688 188.039062v44.722657c0 58.441406-42.691407 106.925781-98.59375 115.921875-.1875.03125-.386719.0625-.574219.09375-56.175781-8.777344-99.140625-57.386719-99.140625-116.015625v-44.722657c0-58.636718 42.976562-107.246093 99.160156-116.023437 56.171875 8.777344 99.148438 57.386719 99.148438 116.023437zm0 0" fill="#f6ba97"/><path d="m255.988281 290.601562c-9.835937 0-19.667969-2.464843-28.632812-7.390624-2.53125-1.390626-3.453125-4.566407-2.0625-7.09375 1.390625-2.53125 4.566406-3.453126 7.09375-2.0625 14.777343 8.125 32.421875 8.121093 47.199219 0 2.527343-1.390626 5.703124-.46875 7.09375 2.0625 1.390624 2.527343.46875 5.703124-2.0625 7.09375-8.960938 4.925781-18.796876 7.390624-28.628907 7.390624zm0 0" fill="#eaa27f"/><path d="m269.308594 259.46875h-26.644532c-3.175781 0-5.746093-2.574219-5.746093-5.75 0-3.171875 2.570312-5.746094 5.746093-5.746094h26.644532c3.175781 0 5.746094 2.574219 5.746094 5.746094 0 3.175781-2.570313 5.75-5.746094 5.75zm0 0" fill="#eaa27f"/><path d="m230.976562 225.921875c0 7.359375-5.960937 13.324219-13.320312 13.324219s-13.324219-5.964844-13.324219-13.324219c0-7.355469 5.964844-13.320313 13.324219-13.320313s13.320312 5.964844 13.320312 13.320313zm0 0" fill="#283542"/><path d="m307.648438 225.921875c0 7.359375-5.964844 13.324219-13.324219 13.324219s-13.324219-5.964844-13.324219-13.324219c0-7.355469 5.964844-13.320313 13.324219-13.320313s13.324219 5.964844 13.324219 13.320313zm0 0" fill="#283542"/><path d="m228.261719 223.570312c0 3.15625-2.554688 5.710938-5.707031 5.710938-3.152344 0-5.707032-2.554688-5.707032-5.710938 0-3.152343 2.554688-5.707031 5.707032-5.707031 3.152343 0 5.707031 2.554688 5.707031 5.707031zm0 0" fill="#fff"/><path d="m305.585938 223.570312c0 3.15625-2.554688 5.710938-5.710938 5.710938-3.152344 0-5.707031-2.554688-5.707031-5.710938 0-3.152343 2.554687-5.707031 5.707031-5.707031 3.15625 0 5.710938 2.554688 5.710938 5.707031zm0 0" fill="#fff"/><path d="m397.246094 158.992188c7.042968 22.535156-3.019532 46.914062-23.8125 58.09375-13.53125-41.785157-43.277344-64.511719-69.640625-76.789063-26.375-12.277344-49.363281-14.105469-49.363281-14.105469 16.199218 16.195313 10.828124 35.503906 10.828124 35.503906-17.191406-11.210937-32.90625-16.402343-45.609374-18.578124-19.25-3.289063-31.566407.316406-31.566407.316406l8.355469 19.851562c-33.433594 0-60.070312 39.414063-60.070312 39.414063-31.460938-31.472657-18.296876-74.941407-18.296876-74.941407l16.71875 8.359376s-7.835937-47.542969 17.765626-73.140626l18.808593 9.402344s9.402344-55.378906 75.230469-60.605468v33.4375s33.4375-33.4375 109.714844-16.71875l-26.121094 30.304687s54.332031 4.179687 72.097656 62.691406h-26.125c.003906 0 13.835938 14.273438 21.085938 37.503907zm0 0" fill="#fc70bd"/><path d="m356.308594 28.492188c-66.871094 0-82.023438 27.847656-82.023438 27.847656l-27.691406-11.128906s33.4375-33.4375 109.714844-16.71875zm0 0" fill="#ed32a2"/><path d="m219.648438 143.117188c-19.25-3.289063-31.566407.316406-31.566407.316406l8.355469 19.851562c-33.433594 0-60.070312 39.414063-60.070312 39.414063-31.460938-31.472657-18.296876-74.941407-18.296876-74.941407l16.71875 8.359376s-7.835937-47.542969 17.765626-73.140626l18.808593 9.402344s9.402344-55.378906 75.230469-60.605468c-34.480469 22.988281-34.480469 66.875-34.480469 66.875l39.707031-10.449219s-79.289062 44.792969-32.171874 74.917969zm0 0" fill="#ed32a2"/><path d="m136.371094 202.699219 2.476562 38.457031 13.136719-13.136719-2.5625-52.71875" fill="#ed32a2"/><path d="m375.507812 202.699219-2.480468 38.457031-13.132813-13.136719 2.5625-52.71875" fill="#fc70bd"/><path d="m344.253906 194.535156c-1.355468-.191406-2.742187-.285156-4.152344-.285156h-168.222656c-1.410156 0-2.800781.09375-4.15625.285156-14.53125 2.019532-25.726562 14.503906-25.726562 29.597656v14.464844c-.003906 12.578125 5.097656 23.972656 13.34375 32.210938 4.390625 4.398437 9.6875 7.902344 15.578125 10.210937 5.152343 2.023438 10.765625 3.132813 16.632812 3.132813 14.414063 0 27.8125-5.152344 38.238281-13.855469 10.4375-8.703125 17.90625-20.949219 20.496094-35.132813.976563-5.40625 5.339844-8.101562 9.707032-8.101562 4.367187 0 8.726562 2.695312 9.707031 8.101562 2.589843 14.183594 10.054687 26.429688 20.492187 35.132813 10.425782 8.703125 23.824219 13.855469 38.238282 13.855469 5.867187 0 11.480468-1.109375 16.632812-3.132813 5.894531-2.308593 11.1875-5.8125 15.582031-10.210937 8.246094-8.238282 13.34375-19.632813 13.339844-32.210938v-14.464844c0-15.09375-11.199219-27.578124-25.730469-29.597656zm-181.65625 14.019532c2.710938-1.625 5.886719-2.558594 9.28125-2.558594h44.15625c8.039063 0 14.898438 5.089844 17.527344 12.21875l-73.144531-.007813h-5.679688c1.402344-4.066406 4.21875-7.480469 7.859375-9.652343zm30.410156 63.535156c-1.789062.203125-3.609374.3125-5.453124.308594-9.734376.003906-18.539063-4.210938-24.71875-10.898438-.421876-.449219-.820313-.914062-1.21875-1.382812h57.542968c-7.042968 6.464843-16.054687 10.828124-26.152344 11.972656zm33.074219-19.898438-65.453125-.003906h-3.945312c-1.269532-2.84375-2.160156-5.882812-2.605469-9.0625h5.320313l71.640624.003906c-1.328124 3.207032-2.996093 6.238282-4.957031 9.0625zm7.46875-16.996094h-79.808593v-9.058593l5.652343.003906h75.285157c-.089844 3.089844-.472657 6.121094-1.128907 9.054687zm62.394531-29.199218h44.15625c3.394532 0 6.570313.933594 9.28125 2.558594 3.640626 2.171874 6.457032 5.585937 7.859376 9.652343h-5.683594l-73.140625.007813c2.628906-7.132813 9.484375-12.21875 17.527343-12.21875zm53.195313 55.503906c-6.179687 6.6875-14.984375 10.902344-24.71875 10.898438-1.839844.003906-3.660156-.109376-5.453125-.308594-10.09375-1.144532-19.105469-5.507813-26.148438-11.972656h57.539063c-.394531.472656-.796875.933593-1.21875 1.382812zm6.152344-9.3125h-3.945313l-65.453125.003906c-1.960937-2.820312-3.625-5.855468-4.957031-9.0625l71.644531-.003906h5.316407c-.445313 3.179688-1.335938 6.21875-2.605469 9.0625zm2.941406-16.992188h-79.804687c-.65625-2.933593-1.042969-5.964843-1.132813-9.054687h75.289063l5.648437-.003906zm0 0" fill="#844aba"/><path d="m372.074219 444.96875-21.316407 7.109375-16.152343-48.441406c-1.960938-5.886719 1.214843-12.25 7.101562-14.210938 5.886719-1.960937 12.25 1.21875 14.210938 7.101563zm0 0" fill="#f6ba97"/><path d="m385.167969 477.058594c-.667969.394531-1.335938.78125-2.003907 1.167968-.773437.449219-1.558593.890626-2.332031 1.316407l-22.003906-29.097657-.636719-.847656.324219-.105468 12.328125-4.117188c6.019531-2.003906 12.308594 2.207031 12.738281 8.539062zm0 0" fill="#eaa27f"/><path d="m314.261719 464.246094-21.316407 7.109375-16.152343-48.441407c-1.960938-5.882812 1.21875-12.246093 7.101562-14.210937 5.886719-1.960937 12.25 1.21875 14.210938 7.105469zm0 0" fill="#f6ba97"/><path d="m370.371094 485.082031c-2.445313 1.234375-4.910156 2.414063-7.40625 3.5625l-28.359375-85.011719c-1.964844-5.882812 1.210937-12.246093 7.09375-14.210937 1.371093-.460937 2.769531-.636719 4.128906-.5625-3.449219 2.871094-4.972656 7.679687-3.46875 12.183594l16.152344 48.449219.316406.953124zm0 0" fill="#eaa27f"/><path d="m383.164062 478.226562c-23.917968 13.722657-50.261718 23.6875-78.222656 29.101563l-15.015625-45.015625 79.128907-26.382812zm0 0" fill="#f6ba97"/><path d="m313 505.636719c-2.664062.605469-5.351562 1.167969-8.046875 1.691406h-.011719l-28.148437-84.417969c-1.964844-5.882812 1.210937-12.246094 7.105469-14.210937 1.367187-.457031 2.757812-.636719 4.117187-.550781-3.449219 2.863281-4.972656 7.667968-3.46875 12.183593zm0 0" fill="#eaa27f"/></svg>