<?xml version="1.0" encoding="iso-8859-1"?>
<!-- Generator: Adobe Illustrator 19.0.0, SVG Export Plug-In . SVG Version: 6.00 Build 0)  -->
<svg version="1.1" id="Capa_1" xmlns="http://www.w3.org/2000/svg" xmlns:xlink="http://www.w3.org/1999/xlink" x="0px" y="0px"
	 viewBox="0 0 512 512" style="enable-background:new 0 0 512 512;" xml:space="preserve">
<path style="fill:#7B1FA1;" d="M256,359.821c-0.721,0-1.417-0.092-2.133-0.108v152.233c0.714,0.004,1.417,0.054,2.133,0.054
	c68.521,0,130.704-26.975,176.65-70.817L324.944,333.475C306.598,349.813,282.496,359.821,256,359.821z"/>
<path style="fill:#F34336;" d="M359.608,251.734c0.058,1.425,0.215,2.825,0.215,4.267c0,30.846-13.527,58.463-34.879,77.475
	L432.65,441.184C481.508,394.563,512,328.863,512,256.001c0-1.433-0.083-2.841-0.108-4.267H359.608z"/>
<path style="fill:#FEEA3B;" d="M256,0c-0.717,0-1.419,0.05-2.133,0.054v152.233c0.717-0.017,1.413-0.108,2.133-0.108
	c29.768,0,56.494,12.617,75.392,32.696L439.067,77.201C392.6,29.6,327.786,0,256,0z"/>
<path style="fill:#FE9700;" d="M331.392,184.875c16.587,17.625,27.162,40.988,28.217,66.858h152.283
	C510.777,183.83,483.194,122.4,439.067,77.2L331.392,184.875z"/>
<path style="fill:#03A8F3;" d="M152.177,256.001c0-1.442,0.154-2.841,0.212-4.267H0.108C0.083,253.159,0,254.571,0,256.001
	c0,71.784,29.592,136.604,77.187,183.079l107.671-107.671C164.785,312.5,152.177,285.767,152.177,256.001z"/>
<path style="fill:#3F51B4;" d="M77.187,439.08c45.675,44.6,107.927,72.3,176.679,72.867V359.713
	c-26.725-0.542-50.896-11.246-69.008-28.304L77.187,439.08z"/>
<path style="fill:#8AC24A;" d="M253.867,152.288V0.054C181.856,0.646,116.998,31.009,70.852,79.383l107.723,107.725
	C197.119,166.258,223.886,152.896,253.867,152.288z"/>
<path style="fill:#FEC007;" d="M368.215,77.199c11.742,12.027,22.268,25.231,31.481,39.371l39.371-39.371
	C392.6,29.602,327.785,0,256,0c-0.717,0-1.418,0.051-2.133,0.055v9.363C297.902,21.692,337.168,45.398,368.215,77.199z"/>
<path style="fill:#F47C00;" d="M441.039,251.735h70.852c-1.114-67.906-28.697-129.336-72.824-174.535l-39.371,39.371
	C425.104,155.578,440.223,201.895,441.039,251.735z"/>
<path style="fill:#DC2C00;" d="M511.891,251.735h-70.852l0,0c0.025,1.422,0.11,2.832,0.11,4.266
	c0,54.781-17.242,105.504-46.559,147.121l38.061,38.062C481.508,394.563,512,328.864,512,256.001
	C512,254.567,511.918,253.156,511.891,251.735z"/>
<path style="fill:#009587;" d="M178.575,187.109L70.852,79.383C27.942,124.367,1.204,184.908,0.108,251.734h152.281
	C153.4,226.934,163.154,204.442,178.575,187.109z"/>
<path style="fill:#6A1B99;" d="M361.797,441.184c-29.973,28.598-66.885,49.953-107.93,61.395v9.367
	c0.715,0.004,1.416,0.055,2.133,0.055c68.521,0,130.703-26.976,176.651-70.817l-38.061-38.062
	C384.91,416.86,373.924,429.613,361.797,441.184z"/>
<path style="fill:#303F9E;" d="M220.85,509.481c10.813,1.488,21.816,2.371,33.017,2.465v-9.367
	C243.125,505.571,232.114,507.907,220.85,509.481z"/>
<path style="fill:#4CAE50;" d="M253.867,9.418V0.055c-11.223,0.094-22.246,0.988-33.078,2.484
	C232.071,4.113,243.11,6.422,253.867,9.418z"/>
<g>
</g>
<g>
</g>
<g>
</g>
<g>
</g>
<g>
</g>
<g>
</g>
<g>
</g>
<g>
</g>
<g>
</g>
<g>
</g>
<g>
</g>
<g>
</g>
<g>
</g>
<g>
</g>
<g>
</g>
</svg>
